<svg xmlns="http://www.w3.org/2000/svg" xmlns:xlink="http://www.w3.org/1999/xlink">
<symbol id="github" fill-rule="evenodd" clip-rule="evenodd" stroke-linejoin="round" stroke-miterlimit="1.414"><path d="M8 0C3.58 0 0 3.582 0 8c0 3.535 2.292 6.533 5.47 7.59.4.075.547-.172.547-.385 0-.19-.007-.693-.01-1.36-2.226.483-2.695-1.073-2.695-1.073-.364-.924-.89-1.17-.89-1.17-.725-.496.056-.486.056-.486.803.056 1.225.824 1.225.824.714 1.223 1.873.87 2.33.665.072-.517.278-.87.507-1.07-1.777-.2-3.644-.888-3.644-3.953 0-.873.31-1.587.823-2.147-.09-.202-.36-1.015.07-2.117 0 0 .67-.215 2.2.82.64-.178 1.32-.266 2-.27.68.004 1.36.092 2 .27 1.52-1.035 2.19-.82 2.19-.82.43 1.102.16 1.915.08 2.117.51.56.82 1.274.82 2.147 0 3.073-1.87 3.75-3.65 3.947.28.24.54.73.54 1.48 0 1.07-.01 1.93-.01 2.19 0 .21.14.46.55.38C13.71 14.53 16 11.53 16 8c0-4.418-3.582-8-8-8"/></symbol>
<symbol id="rss" fill-rule="evenodd" clip-rule="evenodd" stroke-linejoin="round" stroke-miterlimit="1.414"><path d="M12.8 16C12.8 8.978 7.022 3.2 0 3.2V0c8.777 0 16 7.223 16 16h-3.2zM2.194 11.61c1.21 0 2.195.985 2.195 2.196 0 1.21-.99 2.194-2.2 2.194C.98 16 0 15.017 0 13.806c0-1.21.983-2.195 2.194-2.195zM10.606 16h-3.11c0-4.113-3.383-7.497-7.496-7.497v-3.11c5.818 0 10.606 4.79 10.606 10.607z"/></symbol>
<symbol id="weibo" fill-rule="evenodd" clip-rule="evenodd" stroke-linejoin="round" stroke-miterlimit="1.414"><path d="M16,5c.07.88-.08,1.93-.67,2-1,.08-.46-1-.45-1.58a3.09,3.09,0,0,0-3.09-3.08c-.44,0-1.45.29-1.3-.62.07-.4.42-.39.76-.44A4.06,4.06,0,0,1,16,5Z"/><path d="M11.74,7.12c1.12.6,2.46.9,2.24,2.68-.41,3.29-7.37,5.49-11.72,3.08C1.06,12.22-.17,11.25,0,9.32a6.9,6.9,0,0,1,2.42-4A7.87,7.87,0,0,1,6.15,3C7.8,2.62,8.29,4,7.85,5.31c1-.06,3-1.12,3.89-.09a2,2,0,0,1,0,1.89Zm-1.21,4.22a2.63,2.63,0,0,0,.72-1.71c0-2.93-5.09-3.58-7.87-2C.21,9.47,1.54,12.75,5.43,13a6.61,6.61,0,0,0,5.1-1.67Z"/><path d="M13.3,6.28c-.65,0-.41-.44-.45-1a1.2,1.2,0,0,0-.58-.88c-.51-.23-1.3.17-1.3-.53,0-.52.46-.46.72-.48C14.06,3.2,14.21,6.22,13.3,6.28Z"/><path d="M8.56,9.4c1,2.83-4,4.15-4.92,1.72C3,9.49,4.49,8.2,6,8A2.31,2.31,0,0,1,8.56,9.4Zm-2.28.48a.34.34,0,0,0,.63-.18C6.86,9.4,6.28,9.44,6.28,9.89Zm-.8,1.5c.83-.2.95-1.74-.31-1.45C4.1,10.17,4.31,11.66,5.48,11.38Z"/>></symbol>
</svg>
